# xmcd
#
# Track frame offsets:
#	150
#	11275
#	21135
#	31600
#	42870
#	52675
#	61887
#	73972
#	84672
#	91422
#	99972
#	110357
#	120985
#	129512
#	138190
#	149965
#	160302
#
# Disc length: 2273 seconds
#
# Revision: 0
# Processed by: cddbd v1.5.2PL0 Copyright (c) Steve Scherf et al.
# Submitted via: dBpowerAMP V4.0
#
DISCID=d708df11
DTITLE=Waylon Jenning - The Best Of
DYEAR=1994
DGENRE=Country
TTITLE0=01 - Big Mamou
TTITLE1=02 - Anita You're Dreaming
TTITLE2=03 - Burning Memories
TTITLE3=04 - Sally Was A Good Old Girl
TTITLE4=05 - When Sin Stops
TTITLE5=06 - Brown Eyed Handsome Man
TTITLE6=07 - Don't Think Twice, It's Alright
TTITLE7=08 - Dream Baby
TTITLE8=09 - It's So Easy
TTITLE9=10 - Abilene
TTITLE10=11 - Lorena
TTITLE11=12 - Only Daddy That'll Walk The Line
TTITLE12=13 - Love's Gonna Live Here
TTITLE13=14 - Jole Blon
TTITLE14=15 - Crying
TTITLE15=16 - Money (That's What I Want)
TTITLE16=17 - White Lightning
EXTD=
EXTT0=
EXTT1=
EXTT2=
EXTT3=
EXTT4=
EXTT5=
EXTT6=
EXTT7=
EXTT8=
EXTT9=
EXTT10=
EXTT11=
EXTT12=
EXTT13=
EXTT14=
EXTT15=
EXTT16=
PLAYORDER=
